<svg width="20" height="20" viewBox="0 0 20 20" fill="none" xmlns="http://www.w3.org/2000/svg">
<path d="M6.73337 16.6667C7.96561 16.7079 9.19362 16.5017 10.3448 16.0602C11.496 15.6188 12.547 14.9511 13.4358 14.0965C14.3245 13.2419 15.0329 12.2179 15.5192 11.0849C16.0054 9.95189 16.2596 8.73291 16.2667 7.5C16.8314 6.80117 17.2507 5.99652 17.5 5.13333C17.5186 5.06513 17.5171 4.99301 17.4957 4.92564C17.4743 4.85828 17.4338 4.79854 17.3792 4.75363C17.3246 4.70872 17.2582 4.68056 17.188 4.67252C17.1178 4.66448 17.0467 4.67692 16.9834 4.70833C16.6879 4.85054 16.3553 4.89648 16.0324 4.83967C15.7095 4.78286 15.4125 4.62616 15.1834 4.39166C14.8908 4.07131 14.537 3.81294 14.1427 3.63185C13.7485 3.45077 13.322 3.35065 12.8883 3.33744C12.4547 3.32423 12.0228 3.39819 11.6183 3.55494C11.2138 3.7117 10.8449 3.94805 10.5334 4.25C10.1069 4.66304 9.79447 5.1794 9.62654 5.74889C9.45862 6.31838 9.44087 6.92162 9.57503 7.5C6.78337 7.66666 4.8667 6.34166 3.33337 4.525C3.2873 4.47283 3.22705 4.43521 3.15995 4.41672C3.09286 4.39823 3.02184 4.39968 2.95556 4.42089C2.88927 4.4421 2.8306 4.48216 2.78671 4.53616C2.74281 4.59016 2.71559 4.65578 2.70837 4.725C2.41626 6.34535 2.62698 8.01629 3.31222 9.51339C3.99746 11.0105 5.1244 12.2621 6.5417 13.1C5.5914 14.1899 4.25688 14.8705 2.8167 15C2.73954 15.0128 2.66832 15.0494 2.61299 15.1047C2.55767 15.16 2.52101 15.2311 2.50815 15.3083C2.4953 15.3854 2.50688 15.4647 2.54129 15.5349C2.57569 15.6051 2.6312 15.6629 2.70003 15.7C3.95297 16.3261 5.33273 16.6568 6.73337 16.6667Z" fill="white"/>
</svg>
